<svg width="532" height="265" viewBox="0 0 532 265" fill="none" xmlns="http://www.w3.org/2000/svg">
<g clip-path="url(#clip0_307_1510)">
<rect width="532" height="265" fill="url(#paint0_linear_307_1510)"/>
<g style="mix-blend-mode:screen" filter="url(#filter0_f_307_1510)">
<g filter="url(#filter1_i_307_1510)">
<rect width="197.829" height="154.152" transform="matrix(0.866025 0.5 -0.866025 0.5 56.7207 -122)" fill="#BDCBFD"/>
<rect width="197.829" height="282.613" transform="matrix(0.866025 0.5 0 1 -76.7788 -44.9237)" fill="url(#paint1_linear_307_1510)"/>
<rect width="197.829" height="282.613" transform="matrix(0.866025 0.5 0 1 -76.7788 -44.9237)" fill="black" fill-opacity="0.2"/>
<rect width="154.152" height="282.613" transform="matrix(0.866025 -0.5 0 1 94.5454 53.9911)" fill="#ECF0FF"/>
<g filter="url(#filter2_i_307_1510)">
<mask id="mask0_307_1510" style="mask-type:alpha" maskUnits="userSpaceOnUse" x="8" y="99" width="22" height="67">
<rect width="23.9793" height="53.9534" transform="matrix(0.866025 0.5 0 1 8.66992 99.38)" fill="#D9D9D9"/>
</mask>
<g mask="url(#mask0_307_1510)">
<rect width="5.99482" height="53.9534" transform="matrix(0.866025 -0.5 0 1 8.66992 99.38)" fill="#93AAFC"/>
<rect width="23.9793" height="5.99482" transform="matrix(0.866025 0.5 -0.866025 0.5 13.8613 150.336)" fill="#BDCBFD"/>
<rect width="23.9793" height="53.9534" transform="matrix(0.866025 0.5 0 1 13.8613 96.3833)" fill="url(#paint2_linear_307_1510)"/>
</g>
</g>
<g filter="url(#filter3_i_307_1510)">
<mask id="mask1_307_1510" style="mask-type:alpha" maskUnits="userSpaceOnUse" x="-16" y="85" width="22" height="67">
<rect width="23.9793" height="53.9534" transform="matrix(0.866025 0.5 0 1 -15.3096 85.6781)" fill="#D9D9D9"/>
</mask>
<g mask="url(#mask1_307_1510)">
<rect width="23.9793" height="5.99482" transform="matrix(0.866025 0.5 -0.866025 0.5 -10.1182 136.634)" fill="#BDCBFD"/>
<rect width="23.9793" height="53.9534" transform="matrix(0.866025 0.5 0 1 -10.1182 82.6812)" fill="url(#paint3_linear_307_1510)"/>
</g>
</g>
<g filter="url(#filter4_i_307_1510)">
<mask id="mask2_307_1510" style="mask-type:alpha" maskUnits="userSpaceOnUse" x="32" y="174" width="22" height="67">
<rect width="23.9793" height="53.9534" transform="matrix(0.866025 0.5 0 1 32.6489 174.743)" fill="#D9D9D9"/>
</mask>
<g mask="url(#mask2_307_1510)">
<rect width="5.99482" height="53.9534" transform="matrix(0.866025 -0.5 0 1 32.6489 174.743)" fill="#93AAFC"/>
<rect width="23.9793" height="5.99482" transform="matrix(0.866025 0.5 -0.866025 0.5 37.8403 225.699)" fill="#BDCBFD"/>
<rect width="23.9793" height="53.9534" transform="matrix(0.866025 0.5 0 1 37.8403 171.747)" fill="url(#paint4_linear_307_1510)"/>
</g>
</g>
<g filter="url(#filter5_i_307_1510)">
<mask id="mask3_307_1510" style="mask-type:alpha" maskUnits="userSpaceOnUse" x="57" y="189" width="22" height="67">
<rect width="23.9793" height="53.9534" transform="matrix(0.866025 0.5 0 1 57.4849 189.303)" fill="#D9D9D9"/>
</mask>
<g mask="url(#mask3_307_1510)">
<rect width="5.99482" height="53.9534" transform="matrix(0.866025 -0.5 0 1 57.4849 189.303)" fill="#93AAFC"/>
<rect width="23.9793" height="5.99482" transform="matrix(0.866025 0.5 -0.866025 0.5 62.6763 240.259)" fill="#BDCBFD"/>
<rect width="23.9793" height="53.9534" transform="matrix(0.866025 0.5 0 1 62.6763 186.307)" fill="url(#paint5_linear_307_1510)"/>
</g>
</g>
<g filter="url(#filter6_i_307_1510)">
<mask id="mask4_307_1510" style="mask-type:alpha" maskUnits="userSpaceOnUse" x="32" y="113" width="22" height="67">
<rect width="23.9793" height="53.9534" transform="matrix(0.866025 0.5 0 1 32.6489 113.939)" fill="#D9D9D9"/>
</mask>
<g mask="url(#mask4_307_1510)">
<rect width="5.99482" height="53.9534" transform="matrix(0.866025 -0.5 0 1 32.6489 113.939)" fill="#93AAFC"/>
<rect width="23.9793" height="5.99482" transform="matrix(0.866025 0.5 -0.866025 0.5 37.8403 164.895)" fill="#BDCBFD"/>
<rect width="23.9793" height="53.9534" transform="matrix(0.866025 0.5 0 1 37.8403 110.942)" fill="url(#paint6_linear_307_1510)"/>
</g>
</g>
<g filter="url(#filter7_i_307_1510)">
<mask id="mask5_307_1510" style="mask-type:alpha" maskUnits="userSpaceOnUse" x="57" y="129" width="22" height="67">
<rect width="23.9793" height="53.9534" transform="matrix(0.866025 0.5 0 1 57.4849 129.354)" fill="#D9D9D9"/>
</mask>
<g mask="url(#mask5_307_1510)">
<rect width="5.99482" height="53.9534" transform="matrix(0.866025 -0.5 0 1 57.4849 129.354)" fill="#93AAFC"/>
<rect width="23.9793" height="5.99482" transform="matrix(0.866025 0.5 -0.866025 0.5 62.6763 180.31)" fill="#BDCBFD"/>
<rect width="23.9793" height="53.9534" transform="matrix(0.866025 0.5 0 1 62.6763 126.356)" fill="url(#paint7_linear_307_1510)"/>
</g>
</g>
<g filter="url(#filter8_i_307_1510)">
<mask id="mask6_307_1510" style="mask-type:alpha" maskUnits="userSpaceOnUse" x="106" y="-7" width="113" height="98">
<rect width="129.317" height="32.5433" transform="matrix(0.866025 -0.5 0 1 106.3 57.8449)" fill="#D9D9D9"/>
</mask>
<g mask="url(#mask6_307_1510)">
<rect width="5.99482" height="32.5433" transform="matrix(0.866025 0.5 0 1 213.1 -9.81055)" fill="#93AAFC"/>
<rect width="129.317" height="5.99482" transform="matrix(0.866025 -0.5 0.866025 0.5 101.108 87.3902)" fill="#BDCBFD"/>
<rect width="129.317" height="32.5433" transform="matrix(0.866025 -0.5 0 1 101.108 54.8469)" fill="url(#paint8_linear_307_1510)"/>
</g>
</g>
<g filter="url(#filter9_i_307_1510)">
<mask id="mask7_307_1510" style="mask-type:alpha" maskUnits="userSpaceOnUse" x="105" y="34" width="113" height="98">
<rect width="129.317" height="32.5433" transform="matrix(0.866025 -0.5 0 1 105.443 98.9516)" fill="#D9D9D9"/>
</mask>
<g mask="url(#mask7_307_1510)">
<rect width="5.99482" height="32.5433" transform="matrix(0.866025 0.5 0 1 212.244 31.2961)" fill="#93AAFC"/>
<rect width="129.317" height="5.99482" transform="matrix(0.866025 -0.5 0.866025 0.5 100.251 128.497)" fill="#BDCBFD"/>
<rect width="129.317" height="32.5433" transform="matrix(0.866025 -0.5 0 1 100.251 95.9536)" fill="url(#paint9_linear_307_1510)"/>
</g>
</g>
<g filter="url(#filter10_i_307_1510)">
<mask id="mask8_307_1510" style="mask-type:alpha" maskUnits="userSpaceOnUse" x="106" y="74" width="113" height="98">
<rect width="129.317" height="32.5433" transform="matrix(0.866025 -0.5 0 1 106.3 139.203)" fill="#D9D9D9"/>
</mask>
<g mask="url(#mask8_307_1510)">
<rect width="5.99482" height="32.5433" transform="matrix(0.866025 0.5 0 1 213.1 71.5463)" fill="#93AAFC"/>
<rect width="129.317" height="5.99482" transform="matrix(0.866025 -0.5 0.866025 0.5 101.108 168.748)" fill="#BDCBFD"/>
<rect width="129.317" height="32.5433" transform="matrix(0.866025 -0.5 0 1 101.108 136.205)" fill="url(#paint10_linear_307_1510)"/>
</g>
</g>
<g filter="url(#filter11_i_307_1510)">
<mask id="mask9_307_1510" style="mask-type:alpha" maskUnits="userSpaceOnUse" x="105" y="116" width="113" height="98">
<rect width="129.317" height="32.5433" transform="matrix(0.866025 -0.5 0 1 105.443 181.167)" fill="#D9D9D9"/>
</mask>
<g mask="url(#mask9_307_1510)">
<rect width="5.99482" height="32.5433" transform="matrix(0.866025 0.5 0 1 212.244 113.512)" fill="#93AAFC"/>
<rect width="129.317" height="5.99482" transform="matrix(0.866025 -0.5 0.866025 0.5 100.251 210.712)" fill="#BDCBFD"/>
<rect width="129.317" height="32.5433" transform="matrix(0.866025 -0.5 0 1 100.251 178.169)" fill="url(#paint11_linear_307_1510)"/>
</g>
</g>
<g filter="url(#filter12_i_307_1510)">
<mask id="mask10_307_1510" style="mask-type:alpha" maskUnits="userSpaceOnUse" x="106" y="161" width="113" height="145">
<rect width="129.317" height="79.6454" transform="matrix(0.866025 -0.5 0 1 106.3 225.7)" fill="#D9D9D9"/>
</mask>
<g mask="url(#mask10_307_1510)">
<rect width="5.99482" height="79.6454" transform="matrix(0.866025 0.5 0 1 213.1 158.045)" fill="#93AAFC"/>
<rect width="129.317" height="5.99482" transform="matrix(0.866025 -0.5 0.866025 0.5 101.108 302.348)" fill="#BDCBFD"/>
<rect width="129.317" height="79.6454" transform="matrix(0.866025 -0.5 0 1 101.108 222.702)" fill="url(#paint12_linear_307_1510)"/>
</g>
</g>
</g>
<g filter="url(#filter13_i_307_1510)">
<mask id="mask11_307_1510" style="mask-type:alpha" maskUnits="userSpaceOnUse" x="-64" y="-114" width="277" height="160">
<rect width="181.557" height="137.024" transform="matrix(0.866025 0.5 -0.866025 0.5 55.3984 -113.864)" fill="#D9D9D9"/>
</mask>
<g mask="url(#mask11_307_1510)">
<rect width="181.557" height="137.024" transform="matrix(0.866025 0.5 -0.866025 0.5 55.3984 -101.018)" fill="#BDCBFD"/>
</g>
</g>
<rect width="109.62" height="239.793" transform="matrix(0.866025 0.5 -0.866025 0.5 -75.6973 119.079)" fill="#BDCBFD"/>
<rect width="239.793" height="120.753" transform="matrix(0.866025 -0.5 0 1 -188.43 293.785)" fill="#ECF0FF"/>
<g filter="url(#filter14_i_307_1510)">
<mask id="mask12_307_1510" style="mask-type:alpha" maskUnits="userSpaceOnUse" x="-83" y="238" width="86" height="83">
<rect width="97.6299" height="32.5433" transform="matrix(0.866025 -0.5 0 1 -82.1089 287.79)" fill="#D9D9D9"/>
</mask>
<g mask="url(#mask12_307_1510)">
<rect width="5.99482" height="32.5433" transform="matrix(0.866025 0.5 0 1 -2.75049 235.977)" fill="#93AAFC"/>
</g>
</g>
<g filter="url(#filter15_i_307_1510)">
<mask id="mask13_307_1510" style="mask-type:alpha" maskUnits="userSpaceOnUse" x="-83" y="197" width="86" height="83">
<rect width="97.6299" height="32.5433" transform="matrix(0.866025 -0.5 0 1 -82.1089 246.681)" fill="#D9D9D9"/>
</mask>
<g mask="url(#mask13_307_1510)">
<rect width="5.99482" height="32.5433" transform="matrix(0.866025 0.5 0 1 -2.75049 194.869)" fill="#93AAFC"/>
<rect width="97.6299" height="5.99482" transform="matrix(0.866025 -0.5 0.866025 0.5 -87.3008 276.227)" fill="#BDCBFD"/>
</g>
</g>
<g filter="url(#filter16_i_307_1510)">
<path d="M-63.2681 -1.29373C-63.2681 -5.07756 -60.6116 -6.61126 -57.3347 -4.71935L62.8152 64.6493C66.0921 66.5412 68.7486 71.1423 68.7486 74.9261V110.039C68.7486 113.822 66.0921 115.356 62.8152 113.464L-57.3347 44.0956C-60.6116 42.2037 -63.2681 37.6026 -63.2681 33.8188V-1.29373Z" fill="#C3D0FF"/>
<rect width="5.99482" height="35.1125" transform="matrix(0.866025 -0.5 0 1 68.7485 74.9262)" fill="#9EADE1"/>
<rect width="138.737" height="5.99482" transform="matrix(0.866025 0.5 -0.866025 0.5 -52.1431 -7.7159)" fill="#ECF0FF"/>
<path d="M68.7483 74.9268C68.7483 71.1429 66.0918 66.5418 62.8149 64.6499L68.0066 61.6525C71.2835 63.5444 73.9399 68.1455 73.9399 71.9294L68.7483 74.9268Z" fill="#B9C8FE"/>
<path d="M67.0107 113.88C68.1693 113.211 68.7486 111.792 68.7486 110.039L73.9402 107.041C73.9402 108.795 73.361 110.214 72.2024 110.883L67.0107 113.88Z" fill="#6580E1"/>
</g>
<g filter="url(#filter17_d_307_1510)">
<path d="M-30.7009 43.8763C-31.4202 43.461 -32.0666 42.9434 -32.6399 42.3234C-33.2029 41.6975 -33.646 41.0324 -33.9691 40.3281C-34.2923 39.6119 -34.4591 38.9077 -34.4696 38.2155L-32.9527 39.0912C-32.9006 39.7112 -32.6921 40.3312 -32.3272 40.9511C-31.9519 41.565 -31.4098 42.0767 -30.7009 42.4859C-30.0232 42.8772 -29.4915 42.9915 -29.1058 42.829C-28.7097 42.6605 -28.5116 42.2693 -28.5116 41.6553C-28.5116 41.1738 -28.6263 40.7164 -28.8556 40.283C-29.085 39.8496 -29.3717 39.4554 -29.7157 39.1003C-30.0597 38.7452 -30.5236 38.3088 -31.1074 37.7912C-31.8268 37.1592 -32.4054 36.6084 -32.8432 36.1389C-33.2707 35.6755 -33.6408 35.1248 -33.9535 34.4867C-34.2558 33.8427 -34.407 33.1295 -34.407 32.347C-34.407 31.6608 -34.2558 31.1402 -33.9535 30.7851C-33.6512 30.43 -33.229 30.2644 -32.6869 30.2885C-32.1343 30.3186 -31.5036 30.5383 -30.7947 30.9476C-29.773 31.5375 -28.939 32.3139 -28.2927 33.2769C-27.6359 34.246 -27.2658 35.2421 -27.1824 36.2653L-28.7461 35.3625C-28.7983 34.8509 -29.0172 34.3032 -29.4029 33.7193C-29.7887 33.1235 -30.2995 32.6419 -30.9354 32.2748C-31.5297 31.9317 -32.0144 31.8324 -32.3897 31.9768C-32.765 32.1093 -32.9527 32.4945 -32.9527 33.1325C-32.9527 33.5899 -32.8432 34.0263 -32.6243 34.4416C-32.3949 34.8629 -32.1187 35.2451 -31.7955 35.5882C-31.4619 35.9253 -30.998 36.3617 -30.4037 36.8973C-29.6844 37.5414 -29.1058 38.1041 -28.668 38.5857C-28.2301 39.0551 -27.8548 39.6149 -27.542 40.2649C-27.2293 40.903 -27.0729 41.6192 -27.0729 42.4137C-27.0729 43.0276 -27.2137 43.5242 -27.4951 43.9034C-27.7766 44.2826 -28.1936 44.4812 -28.7461 44.4993C-29.2987 44.5173 -29.9503 44.3097 -30.7009 43.8763ZM-25.5105 40.4447C-25.5105 39.2169 -25.2707 38.2538 -24.7911 37.5556C-24.3116 36.8454 -23.66 36.4512 -22.8364 36.3729C-22.0024 36.3007 -21.0798 36.5565 -20.0686 37.1403C-18.8801 37.8265 -17.8428 38.7564 -16.9567 39.9301C-16.0705 41.1038 -15.4242 42.4159 -15.0176 43.8665L-16.7221 42.8824C-17.0244 41.9495 -17.4623 41.1128 -18.0357 40.3725C-18.5986 39.6382 -19.2762 39.0423 -20.0686 38.5849C-20.8296 38.1455 -21.5124 37.9559 -22.1171 38.0161C-22.7218 38.0763 -23.1961 38.3863 -23.5401 38.946C-23.8842 39.4937 -24.0562 40.2732 -24.0562 41.2844C-24.0562 42.2835 -23.8842 43.2616 -23.5401 44.2186C-23.1961 45.1636 -22.7218 46.0153 -22.1171 46.7737C-21.5124 47.5321 -20.8296 48.1309 -20.0686 48.5703C-19.2762 49.0278 -18.5986 49.2204 -18.0357 49.1482C-17.4623 49.0699 -17.0244 48.7389 -16.7221 48.155L-15.0176 49.1391C-15.4242 50.1082 -16.0705 50.6679 -16.9567 50.8184C-17.8428 50.9569 -18.8801 50.683 -20.0686 49.9968C-21.0798 49.413 -22.0024 48.6095 -22.8364 47.5862C-23.66 46.557 -24.3116 45.4164 -24.7911 44.1645C-25.2707 42.9125 -25.5105 41.6726 -25.5105 40.4447ZM-7.95776 57.0071C-8.969 56.4232 -9.89162 55.6197 -10.7256 54.5965C-11.5596 53.5612 -12.2216 52.4146 -12.7116 51.1566C-13.1912 49.8926 -13.431 48.6467 -13.431 47.4189C-13.431 46.191 -13.1912 45.228 -12.7116 44.5298C-12.2216 43.8255 -11.5596 43.4433 -10.7256 43.3831C-9.89162 43.3109 -8.969 43.5667 -7.95776 44.1506C-6.9361 44.7404 -6.00826 45.553 -5.17425 46.5882C-4.34024 47.6115 -3.68345 48.749 -3.20389 50.001C-2.72434 51.2529 -2.48456 52.4989 -2.48456 53.7388C-2.48456 54.9787 -2.72434 55.9477 -3.20389 56.6459C-3.68345 57.3441 -4.34024 57.7293 -5.17425 57.8016C-6.00826 57.8617 -6.9361 57.5969 -7.95776 57.0071ZM-7.95776 55.5806C-7.19672 56.0199 -6.51388 56.2095 -5.90922 56.1494C-5.29414 56.0952 -4.81458 55.7882 -4.47055 55.2285C-4.11609 54.6747 -3.93887 53.8983 -3.93887 52.8991C-3.93887 51.8879 -4.11609 50.9068 -4.47055 49.9558C-4.81458 48.9988 -5.28892 48.1411 -5.89358 47.3827C-6.49824 46.6244 -7.1863 46.0225 -7.95776 45.5771C-8.72922 45.1316 -9.41728 44.939 -10.0219 44.9992C-10.6266 45.0594 -11.1062 45.3664 -11.4606 45.9201C-11.8046 46.4679 -11.9767 47.2473 -11.9767 48.2585C-11.9767 49.2576 -11.8046 50.2357 -11.4606 51.1927C-11.1062 52.1558 -10.6266 53.0165 -10.0219 53.7749C-9.40685 54.5393 -8.7188 55.1412 -7.95776 55.5806ZM0.817076 60.6106L4.63268 62.8135V64.1498L-0.605957 61.1252V48.5396L0.817076 49.3612V60.6106ZM9.5373 54.3958C10.7258 55.082 11.7526 55.9336 12.6179 56.9508C13.4936 57.962 14.1609 59.0755 14.6196 60.2914C15.0887 61.5132 15.3233 62.7682 15.3233 64.0562C15.3233 65.3443 15.0887 66.3284 14.6196 67.0085C14.1609 67.6826 13.4936 68.0197 12.6179 68.0197C11.7526 68.0137 10.7258 67.6676 9.5373 66.9814L6.14392 65.0223V52.4366L9.5373 54.3958ZM9.5373 65.6272C10.9447 66.4397 12.0185 66.6323 12.7587 66.205C13.4989 65.7656 13.8689 64.7695 13.8689 63.2166C13.8689 61.6516 13.4936 60.2131 12.743 58.901C12.0028 57.5949 10.9343 56.5385 9.5373 55.732L7.56695 54.5944V64.4896L9.5373 65.6272ZM18.6233 60.9778V65.1851L22.5953 67.4783V68.8325L18.6233 66.5393V70.873L23.0644 73.4371V74.7913L17.2003 71.4057V58.802L23.0644 62.1876V63.5419L18.6233 60.9778ZM34.225 68.6492L30.1123 78.8604L28.4703 77.9124L24.3576 62.9523L25.8744 63.828L29.2991 76.6575L32.7238 67.7825L34.225 68.6492Z" fill="white"/>
</g>
</g>
</g>
<defs>
<filter id="filter0_f_307_1510" x="-490.6" y="-128.6" width="792.2" height="884.272" filterUnits="userSpaceOnUse" color-interpolation-filters="sRGB">
<feFlood flood-opacity="0" result="BackgroundImageFix"/>
<feBlend mode="normal" in="SourceGraphic" in2="BackgroundImageFix" result="shape"/>
<feGaussianBlur stdDeviation="3.3" result="effect1_foregroundBlur_307_1510"/>
</filter>
<filter id="filter1_i_307_1510" x="-77.6357" y="-122" width="305.682" height="458.604" filterUnits="userSpaceOnUse" color-interpolation-filters="sRGB">
<feFlood flood-opacity="0" result="BackgroundImageFix"/>
<feBlend mode="normal" in="SourceGraphic" in2="BackgroundImageFix" result="shape"/>
<feColorMatrix in="SourceAlpha" type="matrix" values="0 0 0 0 0 0 0 0 0 0 0 0 0 0 0 0 0 0 127 0" result="hardAlpha"/>
<feOffset dx="-0.856403"/>
<feGaussianBlur stdDeviation="4.75304"/>
<feComposite in2="hardAlpha" operator="arithmetic" k2="-1" k3="1"/>
<feColorMatrix type="matrix" values="0 0 0 0 0 0 0 0 0 0 0 0 0 0 0 0 0 0 0.25 0"/>
<feBlend mode="color-burn" in2="shape" result="effect1_innerShadow_307_1510"/>
</filter>
<filter id="filter2_i_307_1510" x="8.66992" y="99.38" width="20.7666" height="65.943" filterUnits="userSpaceOnUse" color-interpolation-filters="sRGB">
<feFlood flood-opacity="0" result="BackgroundImageFix"/>
<feBlend mode="normal" in="SourceGraphic" in2="BackgroundImageFix" result="shape"/>
<feColorMatrix in="SourceAlpha" type="matrix" values="0 0 0 0 0 0 0 0 0 0 0 0 0 0 0 0 0 0 127 0" result="hardAlpha"/>
<feOffset/>
<feGaussianBlur stdDeviation="1.71281"/>
<feComposite in2="hardAlpha" operator="arithmetic" k2="-1" k3="1"/>
<feColorMatrix type="matrix" values="0 0 0 0 0 0 0 0 0 0 0 0 0 0 0 0 0 0 0.25 0"/>
<feBlend mode="color-burn" in2="shape" result="effect1_innerShadow_307_1510"/>
</filter>
<filter id="filter3_i_307_1510" x="-15.3096" y="85.6781" width="20.7666" height="65.9429" filterUnits="userSpaceOnUse" color-interpolation-filters="sRGB">
<feFlood flood-opacity="0" result="BackgroundImageFix"/>
<feBlend mode="normal" in="SourceGraphic" in2="BackgroundImageFix" result="shape"/>
<feColorMatrix in="SourceAlpha" type="matrix" values="0 0 0 0 0 0 0 0 0 0 0 0 0 0 0 0 0 0 127 0" result="hardAlpha"/>
<feOffset/>
<feGaussianBlur stdDeviation="1.71281"/>
<feComposite in2="hardAlpha" operator="arithmetic" k2="-1" k3="1"/>
<feColorMatrix type="matrix" values="0 0 0 0 0 0 0 0 0 0 0 0 0 0 0 0 0 0 0.25 0"/>
<feBlend mode="color-burn" in2="shape" result="effect1_innerShadow_307_1510"/>
</filter>
<filter id="filter4_i_307_1510" x="32.6489" y="174.743" width="20.7666" height="65.943" filterUnits="userSpaceOnUse" color-interpolation-filters="sRGB">
<feFlood flood-opacity="0" result="BackgroundImageFix"/>
<feBlend mode="normal" in="SourceGraphic" in2="BackgroundImageFix" result="shape"/>
<feColorMatrix in="SourceAlpha" type="matrix" values="0 0 0 0 0 0 0 0 0 0 0 0 0 0 0 0 0 0 127 0" result="hardAlpha"/>
<feOffset/>
<feGaussianBlur stdDeviation="1.71281"/>
<feComposite in2="hardAlpha" operator="arithmetic" k2="-1" k3="1"/>
<feColorMatrix type="matrix" values="0 0 0 0 0 0 0 0 0 0 0 0 0 0 0 0 0 0 0.25 0"/>
<feBlend mode="color-burn" in2="shape" result="effect1_innerShadow_307_1510"/>
</filter>
<filter id="filter5_i_307_1510" x="57.4849" y="189.303" width="20.7666" height="65.9429" filterUnits="userSpaceOnUse" color-interpolation-filters="sRGB">
<feFlood flood-opacity="0" result="BackgroundImageFix"/>
<feBlend mode="normal" in="SourceGraphic" in2="BackgroundImageFix" result="shape"/>
<feColorMatrix in="SourceAlpha" type="matrix" values="0 0 0 0 0 0 0 0 0 0 0 0 0 0 0 0 0 0 127 0" result="hardAlpha"/>
<feOffset/>
<feGaussianBlur stdDeviation="1.71281"/>
<feComposite in2="hardAlpha" operator="arithmetic" k2="-1" k3="1"/>
<feColorMatrix type="matrix" values="0 0 0 0 0 0 0 0 0 0 0 0 0 0 0 0 0 0 0.25 0"/>
<feBlend mode="color-burn" in2="shape" result="effect1_innerShadow_307_1510"/>
</filter>
<filter id="filter6_i_307_1510" x="32.6489" y="113.939" width="20.7666" height="65.943" filterUnits="userSpaceOnUse" color-interpolation-filters="sRGB">
<feFlood flood-opacity="0" result="BackgroundImageFix"/>
<feBlend mode="normal" in="SourceGraphic" in2="BackgroundImageFix" result="shape"/>
<feColorMatrix in="SourceAlpha" type="matrix" values="0 0 0 0 0 0 0 0 0 0 0 0 0 0 0 0 0 0 127 0" result="hardAlpha"/>
<feOffset/>
<feGaussianBlur stdDeviation="1.71281"/>
<feComposite in2="hardAlpha" operator="arithmetic" k2="-1" k3="1"/>
<feColorMatrix type="matrix" values="0 0 0 0 0 0 0 0 0 0 0 0 0 0 0 0 0 0 0.25 0"/>
<feBlend mode="color-burn" in2="shape" result="effect1_innerShadow_307_1510"/>
</filter>
<filter id="filter7_i_307_1510" x="57.4849" y="129.354" width="20.7666" height="65.9428" filterUnits="userSpaceOnUse" color-interpolation-filters="sRGB">
<feFlood flood-opacity="0" result="BackgroundImageFix"/>
<feBlend mode="normal" in="SourceGraphic" in2="BackgroundImageFix" result="shape"/>
<feColorMatrix in="SourceAlpha" type="matrix" values="0 0 0 0 0 0 0 0 0 0 0 0 0 0 0 0 0 0 127 0" result="hardAlpha"/>
<feOffset/>
<feGaussianBlur stdDeviation="1.71281"/>
<feComposite in2="hardAlpha" operator="arithmetic" k2="-1" k3="1"/>
<feColorMatrix type="matrix" values="0 0 0 0 0 0 0 0 0 0 0 0 0 0 0 0 0 0 0.25 0"/>
<feBlend mode="color-burn" in2="shape" result="effect1_innerShadow_307_1510"/>
</filter>
<filter id="filter8_i_307_1510" x="106.3" y="-6.81349" width="111.992" height="97.2011" filterUnits="userSpaceOnUse" color-interpolation-filters="sRGB">
<feFlood flood-opacity="0" result="BackgroundImageFix"/>
<feBlend mode="normal" in="SourceGraphic" in2="BackgroundImageFix" result="shape"/>
<feColorMatrix in="SourceAlpha" type="matrix" values="0 0 0 0 0 0 0 0 0 0 0 0 0 0 0 0 0 0 127 0" result="hardAlpha"/>
<feOffset/>
<feGaussianBlur stdDeviation="1.71281"/>
<feComposite in2="hardAlpha" operator="arithmetic" k2="-1" k3="1"/>
<feColorMatrix type="matrix" values="0 0 0 0 0 0 0 0 0 0 0 0 0 0 0 0 0 0 0.25 0"/>
<feBlend mode="color-burn" in2="shape" result="effect1_innerShadow_307_1510"/>
</filter>
<filter id="filter9_i_307_1510" x="105.443" y="34.2932" width="111.992" height="97.2011" filterUnits="userSpaceOnUse" color-interpolation-filters="sRGB">
<feFlood flood-opacity="0" result="BackgroundImageFix"/>
<feBlend mode="normal" in="SourceGraphic" in2="BackgroundImageFix" result="shape"/>
<feColorMatrix in="SourceAlpha" type="matrix" values="0 0 0 0 0 0 0 0 0 0 0 0 0 0 0 0 0 0 127 0" result="hardAlpha"/>
<feOffset/>
<feGaussianBlur stdDeviation="1.71281"/>
<feComposite in2="hardAlpha" operator="arithmetic" k2="-1" k3="1"/>
<feColorMatrix type="matrix" values="0 0 0 0 0 0 0 0 0 0 0 0 0 0 0 0 0 0 0.25 0"/>
<feBlend mode="color-burn" in2="shape" result="effect1_innerShadow_307_1510"/>
</filter>
<filter id="filter10_i_307_1510" x="106.3" y="74.5444" width="111.992" height="97.2011" filterUnits="userSpaceOnUse" color-interpolation-filters="sRGB">
<feFlood flood-opacity="0" result="BackgroundImageFix"/>
<feBlend mode="normal" in="SourceGraphic" in2="BackgroundImageFix" result="shape"/>
<feColorMatrix in="SourceAlpha" type="matrix" values="0 0 0 0 0 0 0 0 0 0 0 0 0 0 0 0 0 0 127 0" result="hardAlpha"/>
<feOffset/>
<feGaussianBlur stdDeviation="1.71281"/>
<feComposite in2="hardAlpha" operator="arithmetic" k2="-1" k3="1"/>
<feColorMatrix type="matrix" values="0 0 0 0 0 0 0 0 0 0 0 0 0 0 0 0 0 0 0.25 0"/>
<feBlend mode="color-burn" in2="shape" result="effect1_innerShadow_307_1510"/>
</filter>
<filter id="filter11_i_307_1510" x="105.443" y="116.509" width="111.992" height="97.2011" filterUnits="userSpaceOnUse" color-interpolation-filters="sRGB">
<feFlood flood-opacity="0" result="BackgroundImageFix"/>
<feBlend mode="normal" in="SourceGraphic" in2="BackgroundImageFix" result="shape"/>
<feColorMatrix in="SourceAlpha" type="matrix" values="0 0 0 0 0 0 0 0 0 0 0 0 0 0 0 0 0 0 127 0" result="hardAlpha"/>
<feOffset/>
<feGaussianBlur stdDeviation="1.71281"/>
<feComposite in2="hardAlpha" operator="arithmetic" k2="-1" k3="1"/>
<feColorMatrix type="matrix" values="0 0 0 0 0 0 0 0 0 0 0 0 0 0 0 0 0 0 0.25 0"/>
<feBlend mode="color-burn" in2="shape" result="effect1_innerShadow_307_1510"/>
</filter>
<filter id="filter12_i_307_1510" x="106.3" y="161.042" width="111.992" height="144.304" filterUnits="userSpaceOnUse" color-interpolation-filters="sRGB">
<feFlood flood-opacity="0" result="BackgroundImageFix"/>
<feBlend mode="normal" in="SourceGraphic" in2="BackgroundImageFix" result="shape"/>
<feColorMatrix in="SourceAlpha" type="matrix" values="0 0 0 0 0 0 0 0 0 0 0 0 0 0 0 0 0 0 127 0" result="hardAlpha"/>
<feOffset/>
<feGaussianBlur stdDeviation="1.71281"/>
<feComposite in2="hardAlpha" operator="arithmetic" k2="-1" k3="1"/>
<feColorMatrix type="matrix" values="0 0 0 0 0 0 0 0 0 0 0 0 0 0 0 0 0 0 0.25 0"/>
<feBlend mode="color-burn" in2="shape" result="effect1_innerShadow_307_1510"/>
</filter>
<filter id="filter13_i_307_1510" x="-63.2681" y="-113.864" width="275.9" height="159.291" filterUnits="userSpaceOnUse" color-interpolation-filters="sRGB">
<feFlood flood-opacity="0" result="BackgroundImageFix"/>
<feBlend mode="normal" in="SourceGraphic" in2="BackgroundImageFix" result="shape"/>
<feColorMatrix in="SourceAlpha" type="matrix" values="0 0 0 0 0 0 0 0 0 0 0 0 0 0 0 0 0 0 127 0" result="hardAlpha"/>
<feOffset/>
<feGaussianBlur stdDeviation="1.71281"/>
<feComposite in2="hardAlpha" operator="arithmetic" k2="-1" k3="1"/>
<feColorMatrix type="matrix" values="0 0 0 0 0 0 0 0 0 0 0 0 0 0 0 0 0 0 0.25 0"/>
<feBlend mode="color-burn" in2="shape" result="effect1_innerShadow_307_1510"/>
</filter>
<filter id="filter14_i_307_1510" x="-82.1089" y="238.975" width="84.5498" height="81.3576" filterUnits="userSpaceOnUse" color-interpolation-filters="sRGB">
<feFlood flood-opacity="0" result="BackgroundImageFix"/>
<feBlend mode="normal" in="SourceGraphic" in2="BackgroundImageFix" result="shape"/>
<feColorMatrix in="SourceAlpha" type="matrix" values="0 0 0 0 0 0 0 0 0 0 0 0 0 0 0 0 0 0 127 0" result="hardAlpha"/>
<feOffset/>
<feGaussianBlur stdDeviation="1.71281"/>
<feComposite in2="hardAlpha" operator="arithmetic" k2="-1" k3="1"/>
<feColorMatrix type="matrix" values="0 0 0 0 0 0 0 0 0 0 0 0 0 0 0 0 0 0 0.25 0"/>
<feBlend mode="color-burn" in2="shape" result="effect1_innerShadow_307_1510"/>
</filter>
<filter id="filter15_i_307_1510" x="-82.1089" y="197.866" width="84.5498" height="81.3583" filterUnits="userSpaceOnUse" color-interpolation-filters="sRGB">
<feFlood flood-opacity="0" result="BackgroundImageFix"/>
<feBlend mode="normal" in="SourceGraphic" in2="BackgroundImageFix" result="shape"/>
<feColorMatrix in="SourceAlpha" type="matrix" values="0 0 0 0 0 0 0 0 0 0 0 0 0 0 0 0 0 0 127 0" result="hardAlpha"/>
<feOffset/>
<feGaussianBlur stdDeviation="1.71281"/>
<feComposite in2="hardAlpha" operator="arithmetic" k2="-1" k3="1"/>
<feColorMatrix type="matrix" values="0 0 0 0 0 0 0 0 0 0 0 0 0 0 0 0 0 0 0.25 0"/>
<feBlend mode="color-burn" in2="shape" result="effect1_innerShadow_307_1510"/>
</filter>
<filter id="filter16_i_307_1510" x="-63.2681" y="-8.52672" width="137.208" height="122.801" filterUnits="userSpaceOnUse" color-interpolation-filters="sRGB">
<feFlood flood-opacity="0" result="BackgroundImageFix"/>
<feBlend mode="normal" in="SourceGraphic" in2="BackgroundImageFix" result="shape"/>
<feColorMatrix in="SourceAlpha" type="matrix" values="0 0 0 0 0 0 0 0 0 0 0 0 0 0 0 0 0 0 127 0" result="hardAlpha"/>
<feOffset/>
<feGaussianBlur stdDeviation="1.71281"/>
<feComposite in2="hardAlpha" operator="arithmetic" k2="-1" k3="1"/>
<feColorMatrix type="matrix" values="0 0 0 0 0 0 0 0 0 0 0 0 0 0 0 0 0 0 0.25 0"/>
<feBlend mode="color-burn" in2="shape" result="effect1_innerShadow_307_1510"/>
</filter>
<filter id="filter17_d_307_1510" x="-36.5251" y="26.7705" width="72.8056" height="56.6461" filterUnits="userSpaceOnUse" color-interpolation-filters="sRGB">
<feFlood flood-opacity="0" result="BackgroundImageFix"/>
<feColorMatrix in="SourceAlpha" type="matrix" values="0 0 0 0 0 0 0 0 0 0 0 0 0 0 0 0 0 0 127 0" result="hardAlpha"/>
<feOffset/>
<feGaussianBlur stdDeviation="1.02768"/>
<feComposite in2="hardAlpha" operator="out"/>
<feColorMatrix type="matrix" values="0 0 0 0 1 0 0 0 0 1 0 0 0 0 1 0 0 0 1 0"/>
<feBlend mode="normal" in2="BackgroundImageFix" result="effect1_dropShadow_307_1510"/>
<feBlend mode="normal" in="SourceGraphic" in2="effect1_dropShadow_307_1510" result="shape"/>
</filter>
<linearGradient id="paint0_linear_307_1510" x1="-83.5" y1="8.84049e-06" x2="218" y2="612.5" gradientUnits="userSpaceOnUse">
<stop stop-color="#C8BDE4"/>
<stop offset="1" stop-color="white" stop-opacity="0.2"/>
</linearGradient>
<linearGradient id="paint1_linear_307_1510" x1="-6.05966e-05" y1="-0.258727" x2="170.322" y2="-15.8999" gradientUnits="userSpaceOnUse">
<stop stop-color="#5844D7"/>
<stop offset="1" stop-color="#6580E1"/>
</linearGradient>
<linearGradient id="paint2_linear_307_1510" x1="23.9699" y1="53.9667" x2="-15.2726" y2="38.3488" gradientUnits="userSpaceOnUse">
<stop stop-color="#E5D5FF"/>
<stop offset="1" stop-color="#BDCBFD"/>
</linearGradient>
<linearGradient id="paint3_linear_307_1510" x1="23.9699" y1="53.9667" x2="-15.2726" y2="38.3488" gradientUnits="userSpaceOnUse">
<stop stop-color="#E5D5FF"/>
<stop offset="1" stop-color="#BDCBFD"/>
</linearGradient>
<linearGradient id="paint4_linear_307_1510" x1="23.9699" y1="53.9667" x2="-15.2726" y2="38.3488" gradientUnits="userSpaceOnUse">
<stop stop-color="#E5D5FF"/>
<stop offset="1" stop-color="#BDCBFD"/>
</linearGradient>
<linearGradient id="paint5_linear_307_1510" x1="23.9699" y1="53.9667" x2="-15.2726" y2="38.3488" gradientUnits="userSpaceOnUse">
<stop stop-color="#E5D5FF"/>
<stop offset="1" stop-color="#BDCBFD"/>
</linearGradient>
<linearGradient id="paint6_linear_307_1510" x1="23.9699" y1="53.9667" x2="-15.2726" y2="38.3488" gradientUnits="userSpaceOnUse">
<stop stop-color="#E5D5FF"/>
<stop offset="1" stop-color="#BDCBFD"/>
</linearGradient>
<linearGradient id="paint7_linear_307_1510" x1="23.9699" y1="53.9667" x2="-15.2726" y2="38.3488" gradientUnits="userSpaceOnUse">
<stop stop-color="#E5D5FF"/>
<stop offset="1" stop-color="#BDCBFD"/>
</linearGradient>
<linearGradient id="paint8_linear_307_1510" x1="64.6584" y1="0" x2="64.6584" y2="32.5433" gradientUnits="userSpaceOnUse">
<stop stop-color="#E5D5FF"/>
<stop offset="1" stop-color="#BDCBFD"/>
</linearGradient>
<linearGradient id="paint9_linear_307_1510" x1="64.6584" y1="0" x2="64.6584" y2="32.5433" gradientUnits="userSpaceOnUse">
<stop stop-color="#E5D5FF"/>
<stop offset="1" stop-color="#BDCBFD"/>
</linearGradient>
<linearGradient id="paint10_linear_307_1510" x1="64.6584" y1="0" x2="64.6584" y2="32.5433" gradientUnits="userSpaceOnUse">
<stop stop-color="#E5D5FF"/>
<stop offset="1" stop-color="#BDCBFD"/>
</linearGradient>
<linearGradient id="paint11_linear_307_1510" x1="64.6584" y1="0" x2="64.6584" y2="32.5433" gradientUnits="userSpaceOnUse">
<stop stop-color="#E5D5FF"/>
<stop offset="1" stop-color="#BDCBFD"/>
</linearGradient>
<linearGradient id="paint12_linear_307_1510" x1="64.6584" y1="0" x2="64.6584" y2="79.6454" gradientUnits="userSpaceOnUse">
<stop stop-color="#E5D5FF"/>
<stop offset="1" stop-color="#BDCBFD"/>
</linearGradient>
<clipPath id="clip0_307_1510">
<rect width="532" height="265" fill="white"/>
</clipPath>
</defs>
</svg>
