<svg width="26" height="26" viewBox="0 0 26 26" fill="none" xmlns="http://www.w3.org/2000/svg">
<path d="M6.51319 0.0231398C6.48162 -0.00783725 6.43102 -0.00769492 6.39962 0.0234593L0.0239008 6.35015C-0.00793389 6.38174 -0.00797183 6.43321 0.0238166 6.46484L6.49265 12.9028L12.9251 6.42854C12.9568 6.39672 12.9564 6.34526 12.9244 6.31385L6.51319 0.0231398Z" fill="#ECF0FF"/>
<path d="M12.9611 19.3403C12.993 19.3721 12.9928 19.4238 12.9606 19.4554L6.57963 25.6993C6.52777 25.7501 6.56384 25.8381 6.6364 25.8379L19.3295 25.8022C19.3504 25.8022 19.3704 25.794 19.3855 25.7795L25.9753 19.4195C26.0082 19.3878 26.0082 19.3351 25.9754 19.3032L19.3493 12.8895C19.3341 12.8748 19.3139 12.8667 19.2928 12.8667L6.49265 12.9028L12.9611 19.3403Z" fill="#ECF0FF"/>
</svg>
