<svg width="187" height="49" viewBox="0 0 187 49" fill="none" xmlns="http://www.w3.org/2000/svg">
<path fill-rule="evenodd" clip-rule="evenodd" d="M11.9109 0.0436621C11.9693 -0.0143217 12.0635 -0.0145866 12.1223 0.0430674L24.0547 11.7512C24.1143 11.8097 24.1149 11.9055 24.0561 11.9647L12.084 24.0144L0.044327 12.0323C-0.0148371 11.9734 -0.0147664 11.8776 0.0444838 11.8188L11.9109 0.0436621ZM12.084 24.0144L35.9075 23.9474C35.9467 23.9473 35.9844 23.9625 36.0126 23.9897L48.345 35.9269C48.4062 35.9861 48.4061 36.0842 48.3448 36.1433L36.0799 47.9805C36.052 48.0075 36.0147 48.0226 35.9759 48.0227L12.3516 48.0892C12.2165 48.0896 12.1494 47.9256 12.2459 47.8312L24.1221 36.21C24.182 36.1514 24.1824 36.055 24.123 35.9958L12.084 24.0144ZM66.806 32.514C67.904 32.964 69.146 33.189 70.532 33.189C71.954 33.189 73.187 32.928 74.231 32.406C75.275 31.884 76.067 31.182 76.607 30.3C77.165 29.418 77.444 28.437 77.444 27.357C77.444 26.223 77.165 25.296 76.607 24.576C76.049 23.856 75.383 23.307 74.609 22.929C73.853 22.551 72.863 22.155 71.639 21.741C70.415 21.345 69.515 20.976 68.939 20.634C68.363 20.292 68.075 19.815 68.075 19.203C68.075 18.645 68.246 18.222 68.588 17.934C68.93 17.628 69.38 17.475 69.938 17.475C70.586 17.475 71.117 17.655 71.531 18.015C71.945 18.357 72.17 18.834 72.206 19.446H77.201C77.111 17.664 76.427 16.278 75.149 15.288C73.871 14.28 72.188 13.776 70.1 13.776C68.048 13.776 66.383 14.28 65.105 15.288C63.827 16.278 63.188 17.655 63.188 19.419C63.188 20.607 63.467 21.57 64.025 22.308C64.583 23.046 65.249 23.604 66.023 23.982C66.797 24.36 67.796 24.738 69.02 25.116C69.866 25.368 70.514 25.593 70.964 25.791C71.432 25.989 71.819 26.241 72.125 26.547C72.449 26.853 72.611 27.24 72.611 27.708C72.611 28.266 72.413 28.707 72.017 29.031C71.621 29.337 71.081 29.49 70.397 29.49C69.731 29.49 69.191 29.31 68.777 28.95C68.363 28.572 68.12 28.032 68.048 27.33H63.134C63.17 28.572 63.512 29.634 64.16 30.516C64.826 31.398 65.708 32.064 66.806 32.514ZM80.7173 18.501C79.9073 19.959 79.5023 21.624 79.5023 23.496C79.5023 25.368 79.9073 27.033 80.7173 28.491C81.5273 29.949 82.6523 31.092 84.0923 31.92C85.5503 32.73 87.1973 33.135 89.0333 33.135C91.2833 33.135 93.2093 32.55 94.8113 31.38C96.4133 30.192 97.4843 28.572 98.0243 26.52H92.9483C92.5703 27.312 92.0303 27.915 91.3283 28.329C90.6443 28.743 89.8613 28.95 88.9793 28.95C87.5573 28.95 86.4053 28.455 85.5233 27.465C84.6413 26.475 84.2003 25.152 84.2003 23.496C84.2003 21.84 84.6413 20.517 85.5233 19.527C86.4053 18.537 87.5573 18.042 88.9793 18.042C89.8613 18.042 90.6443 18.249 91.3283 18.663C92.0303 19.077 92.5703 19.68 92.9483 20.472H98.0243C97.4843 18.42 96.4133 16.8 94.8113 15.612C93.2093 14.424 91.2833 13.83 89.0333 13.83C87.1973 13.83 85.5503 14.244 84.0923 15.072C82.6523 15.882 81.5273 17.025 80.7173 18.501ZM104.902 31.947C106.396 32.775 108.034 33.189 109.816 33.189C111.598 33.189 113.227 32.775 114.703 31.947C116.179 31.119 117.349 29.967 118.213 28.491C119.077 26.997 119.509 25.323 119.509 23.469C119.509 21.615 119.077 19.95 118.213 18.474C117.367 16.998 116.197 15.846 114.703 15.018C113.227 14.19 111.598 13.776 109.816 13.776C108.034 13.776 106.396 14.19 104.902 15.018C103.426 15.846 102.247 16.998 101.365 18.474C100.501 19.95 100.069 21.615 100.069 23.469C100.069 25.323 100.501 26.997 101.365 28.491C102.247 29.967 103.426 31.119 104.902 31.947ZM113.434 27.465C112.534 28.473 111.328 28.977 109.816 28.977C108.286 28.977 107.062 28.482 106.144 27.492C105.244 26.484 104.794 25.143 104.794 23.469C104.794 21.777 105.244 20.436 106.144 19.446C107.062 18.456 108.286 17.961 109.816 17.961C111.328 17.961 112.534 18.465 113.434 19.473C114.352 20.463 114.811 21.795 114.811 23.469C114.811 25.125 114.352 26.457 113.434 27.465ZM132.742 29.436H126.694V14.046H122.077V33H132.742V29.436ZM147.284 15.234C145.79 14.442 144.044 14.046 142.046 14.046H134.945V33H142.046C144.026 33 145.763 32.604 147.257 31.812C148.769 31.02 149.93 29.904 150.74 28.464C151.568 27.024 151.982 25.377 151.982 23.523C151.982 21.651 151.568 20.004 150.74 18.582C149.93 17.142 148.778 16.026 147.284 15.234ZM145.826 27.573C144.854 28.527 143.495 29.004 141.749 29.004H139.562V17.988H141.749C143.495 17.988 144.854 18.474 145.826 19.446C146.798 20.418 147.284 21.777 147.284 23.523C147.284 25.269 146.798 26.619 145.826 27.573ZM159.179 21.579V17.745H166.172V14.046H154.562V33H166.172V29.301H159.179V25.143H165.362V21.579H159.179ZM174.461 33H180.239L186.962 14.046H182.075L177.35 28.356L172.652 14.046H167.738L174.461 33Z" fill="url(#paint0_linear_112_526)"/>
<defs>
<linearGradient id="paint0_linear_112_526" x1="0" y1="24.0446" x2="186.962" y2="24.0446" gradientUnits="userSpaceOnUse">
<stop stop-color="#1E1E1E"/>
<stop offset="0.5" stop-color="#5844D7"/>
<stop offset="1" stop-color="#6580E1"/>
</linearGradient>
</defs>
</svg>
